<svg width="24" height="38" viewBox="0 0 24 38" fill="none" xmlns="http://www.w3.org/2000/svg">
<path fill-rule="evenodd" clip-rule="evenodd" d="M2.75 2.00641C2.75 0.732413 3.916 -0.198587 5.143 0.0364127C10.341 1.03041 13.658 1.04241 18.853 0.039413C20.08 -0.197587 21.25 0.733413 21.25 2.00941V2.42341H22C22.5304 2.42341 23.0391 2.63413 23.4142 3.0092C23.7893 3.38427 24 3.89298 24 4.42341V5.95141C24 6.48185 23.7893 6.99055 23.4142 7.36563C23.0391 7.7407 22.5304 7.95141 22 7.95141H21.25V8.82941C21.2506 9.27204 21.1037 9.70223 20.8323 10.052C20.561 10.4017 20.1809 10.651 19.752 10.7604C16.898 11.4874 14.528 11.8614 12.102 11.8604C9.678 11.8604 7.246 11.4844 4.268 10.7574C3.83466 10.6511 3.44955 10.4024 3.17432 10.0512C2.8991 9.7 2.74968 9.26661 2.75 8.82041V7.95141H2C1.46957 7.95141 0.96086 7.7407 0.585787 7.36563C0.210714 6.99055 0 6.48185 0 5.95141V4.42341C0 3.89298 0.210714 3.38427 0.585787 3.0092C0.96086 2.63413 1.46957 2.42341 2 2.42341H2.75V2.00741V2.00641ZM4.75 2.00641V2.42341C4.75 2.68606 4.69827 2.94613 4.59776 3.18878C4.49725 3.43143 4.34993 3.65191 4.16421 3.83763C3.9785 4.02334 3.75802 4.17066 3.51537 4.27117C3.27272 4.37168 3.01264 4.42341 2.75 4.42341H2V5.95141H2.75C3.28043 5.95141 3.78914 6.16213 4.16421 6.5372C4.53929 6.91227 4.75 7.42098 4.75 7.95141V8.81641C7.636 9.52041 9.897 9.86041 12.103 9.86041C14.306 9.86141 16.5 9.52441 19.25 8.82541V7.95141C19.25 7.42098 19.4607 6.91227 19.8358 6.5372C20.2109 6.16213 20.7196 5.95141 21.25 5.95141H22V4.42341H21.25C20.7196 4.42341 20.2109 4.2127 19.8358 3.83763C19.4607 3.46255 19.25 2.95385 19.25 2.42341V2.00941L19.248 2.00741C19.2456 2.00557 19.2429 2.00421 19.24 2.00341H19.232C13.784 3.05541 10.21 3.04241 4.767 2.00041H4.759C4.75642 2.00126 4.75404 2.00262 4.752 2.00441L4.75 2.00641Z" fill="white"/>
<path fill-rule="evenodd" clip-rule="evenodd" d="M7 3.77747C7.26522 3.77747 7.51957 3.88282 7.70711 4.07036C7.89464 4.2579 8 4.51225 8 4.77747V6.77747C8 7.04268 7.89464 7.29704 7.70711 7.48457C7.51957 7.67211 7.26522 7.77747 7 7.77747C6.73478 7.77747 6.48043 7.67211 6.29289 7.48457C6.10536 7.29704 6 7.04268 6 6.77747V4.77747C6 4.51225 6.10536 4.2579 6.29289 4.07036C6.48043 3.88282 6.73478 3.77747 7 3.77747ZM2.75 15.0065C2.75 13.7325 3.916 12.8015 5.143 13.0365C10.341 14.0305 13.658 14.0425 18.853 13.0395C20.08 12.8025 21.25 13.7335 21.25 15.0095V15.4235H22C22.5304 15.4235 23.0391 15.6342 23.4142 16.0093C23.7893 16.3843 24 16.893 24 17.4235V18.9515C24 19.4819 23.7893 19.9906 23.4142 20.3657C23.0391 20.7408 22.5304 20.9515 22 20.9515H21.25V21.8295C21.2506 22.2721 21.1037 22.7023 20.8323 23.052C20.561 23.4017 20.1809 23.651 19.752 23.7605C16.898 24.4875 14.528 24.8615 12.102 24.8605C9.678 24.8605 7.246 24.4845 4.268 23.7575C3.83483 23.6512 3.44984 23.4026 3.17463 23.0516C2.89942 22.7006 2.7499 22.2675 2.75 21.8215V20.9515H2C1.46957 20.9515 0.96086 20.7408 0.585787 20.3657C0.210714 19.9906 0 19.4819 0 18.9515V17.4235C0 16.893 0.210714 16.3843 0.585787 16.0093C0.96086 15.6342 1.46957 15.4235 2 15.4235H2.75V15.0065ZM4.75 15.0065V15.4235C4.75 15.9539 4.53929 16.4626 4.16421 16.8377C3.78914 17.2128 3.28043 17.4235 2.75 17.4235H2V18.9515H2.75C3.28043 18.9515 3.78914 19.1622 4.16421 19.5373C4.53929 19.9123 4.75 20.421 4.75 20.9515V21.8165C7.636 22.5205 9.897 22.8605 12.103 22.8605C14.306 22.8615 16.5 22.5245 19.25 21.8255V20.9515C19.25 20.421 19.4607 19.9123 19.8358 19.5373C20.2109 19.1622 20.7196 18.9515 21.25 18.9515H22V17.4235H21.25C20.7196 17.4235 20.2109 17.2128 19.8358 16.8377C19.4607 16.4626 19.25 15.9539 19.25 15.4235V15.0095L19.248 15.0075C19.2456 15.0056 19.2429 15.0043 19.24 15.0035H19.232C13.784 16.0555 10.21 16.0425 4.767 15.0005H4.759C4.75642 15.0013 4.75404 15.0027 4.752 15.0045L4.75 15.0065Z" fill="white"/>
<path fill-rule="evenodd" clip-rule="evenodd" d="M7 16.7775C7.26522 16.7775 7.51957 16.8828 7.70711 17.0704C7.89464 17.2579 8 17.5122 8 17.7775V19.7775C8 20.0427 7.89464 20.297 7.70711 20.4846C7.51957 20.6721 7.26522 20.7775 7 20.7775C6.73478 20.7775 6.48043 20.6721 6.29289 20.4846C6.10536 20.297 6 20.0427 6 19.7775V17.7775C6 17.5122 6.10536 17.2579 6.29289 17.0704C6.48043 16.8828 6.73478 16.7775 7 16.7775ZM2.75 28.0065C2.75 26.7325 3.916 25.8015 5.143 26.0365C10.341 27.0305 13.658 27.0425 18.853 26.0395C20.08 25.8025 21.25 26.7335 21.25 28.0095V28.4235H22C22.5304 28.4235 23.0391 28.6342 23.4142 29.0093C23.7893 29.3843 24 29.893 24 30.4235V31.9515C24 32.4819 23.7893 32.9906 23.4142 33.3657C23.0391 33.7408 22.5304 33.9515 22 33.9515H21.25V34.8295C21.2506 35.2721 21.1037 35.7023 20.8323 36.052C20.561 36.4017 20.1809 36.651 19.752 36.7605C16.898 37.4875 14.528 37.8615 12.102 37.8605C9.678 37.8605 7.246 37.4845 4.268 36.7575C3.83483 36.6512 3.44984 36.4026 3.17463 36.0516C2.89942 35.7006 2.7499 35.2675 2.75 34.8215V33.9515H2C1.46957 33.9515 0.96086 33.7408 0.585787 33.3657C0.210714 32.9906 0 32.4819 0 31.9515V30.4235C0 29.893 0.210714 29.3843 0.585787 29.0093C0.96086 28.6342 1.46957 28.4235 2 28.4235H2.75V28.0065ZM4.75 28.0065V28.4235C4.75 28.9539 4.53929 29.4626 4.16421 29.8377C3.78914 30.2128 3.28043 30.4235 2.75 30.4235H2V31.9515H2.75C3.28043 31.9515 3.78914 32.1622 4.16421 32.5373C4.53929 32.9123 4.75 33.421 4.75 33.9515V34.8165C7.636 35.5205 9.897 35.8605 12.103 35.8605C14.306 35.8615 16.5 35.5245 19.25 34.8255V33.9515C19.25 33.421 19.4607 32.9123 19.8358 32.5373C20.2109 32.1622 20.7196 31.9515 21.25 31.9515H22V30.4235H21.25C20.7196 30.4235 20.2109 30.2128 19.8358 29.8377C19.4607 29.4626 19.25 28.9539 19.25 28.4235V28.0095L19.248 28.0075C19.2456 28.0056 19.2429 28.0043 19.24 28.0035H19.232C13.784 29.0555 10.21 29.0425 4.767 28.0005H4.759C4.75642 28.0013 4.75404 28.0027 4.752 28.0045L4.75 28.0065Z" fill="white"/>
<path fill-rule="evenodd" clip-rule="evenodd" d="M7 29.7775C7.26522 29.7775 7.51957 29.8828 7.70711 30.0704C7.89464 30.2579 8 30.5122 8 30.7775V32.7775C8 33.0427 7.89464 33.297 7.70711 33.4846C7.51957 33.6721 7.26522 33.7775 7 33.7775C6.73478 33.7775 6.48043 33.6721 6.29289 33.4846C6.10536 33.297 6 33.0427 6 32.7775V30.7775C6 30.5122 6.10536 30.2579 6.29289 30.0704C6.48043 29.8828 6.73478 29.7775 7 29.7775Z" fill="white"/>
</svg>
